<?xml version="1.0" encoding="UTF-8"?>
<svg width="128px" height="128px" viewBox="0 0 128 128" version="1.1" xmlns="http://www.w3.org/2000/svg" xmlns:xlink="http://www.w3.org/1999/xlink">
  <defs>
    <rect id="path-1" width="86" height="116" rx="8"></rect>
  </defs>
  <g stroke="none" fill="none">
    <mask id="mask-2" fill="white">
      <use xlink:href="#path-1" transform="rotate(17) translate(31, -29)" stroke-width="8" stroke="white"></use>
    </mask>
    <use x="21" y="6" stroke="#333333" stroke-width="8" fill-rule="nonzero" xlink:href="#path-1"></use>
    <path d="M81.5296062,106.379215 L51.1574874,122.269764 C50.6681327,122.525792 50.0638805,122.336643 49.8078524,121.847288 C49.706532,121.653631 49.6714468,121.432112 49.707965,121.216624 L55.4352736,87.4205727 C55.4900313,87.0974552 55.3829891,86.7680133 55.1487655,86.5387915 L30.6504552,62.5636395 C30.2557391,62.1773525 30.2489059,61.5442244 30.6351929,61.1495083 C30.788062,60.9933035 30.987897,60.8914825 31.2041235,60.8596237 L65.1159136,55.8630638 C65.4401377,55.8152926 65.7203778,55.6116863 65.8660016,55.318093 L81.0973319,24.6100859 C81.3427387,24.1153193 81.9427677,23.9131733 82.4375343,24.15858 C82.6333331,24.2556972 82.791923,24.4142871 82.8890402,24.6100859 L98.1203705,55.318093 C98.2659943,55.6116863 98.5462348,55.8152926 98.8704588,55.8630638 L132.782249,60.8596237 C133.328635,60.9401281 133.706306,61.4483231 133.625802,61.9947089 C133.593943,62.2109354 133.492122,62.4107704 133.335917,62.5636395 L108.837607,86.5387915 C108.603383,86.7680133 108.496341,87.0974552 108.551099,87.4205727 L114.278407,121.216624 C114.370686,121.761145 114.00407,122.277373 113.459549,122.369651 C113.244061,122.406169 113.022542,122.371084 112.828885,122.269764 L82.4567659,106.379215 C82.1663839,106.227289 81.8199882,106.227289 81.5296062,106.379215 Z" stroke="#333333" stroke-width="8" fill="#C2C2C2" mask="url(#mask-2)" transform="translate(82, 73) rotate(-17) translate(-82, -73)"></path>
  </g>
</svg>
