<svg width="97px" height="100px" viewBox="0 0 97 100" version="1.1" xmlns="http://www.w3.org/2000/svg" xmlns:xlink="http://www.w3.org/1999/xlink">
  <g stroke="none" stroke-width="1" fill="none" fill-rule="evenodd">
    <g transform="translate(-3.000000, -11.000000)">
      <rect stroke="#124BE6" stroke-width="4" transform="translate(86.586321, 36.829547) rotate(-8.000000) translate(-86.586321, -36.829547) " x="78.997909" y="29.2411352" width="15.1768236" height="15.1768236"></rect>
      <circle stroke="#124BE6" stroke-width="4" cx="10.5" cy="78.5" r="10.5"></circle>
      <circle stroke="#124BE6" stroke-width="4" cx="107.5" cy="78.5" r="10.5"></circle>
      <circle fill="#124BE6" cx="71" cy="81" r="2"></circle>
      <circle fill="#124BE6" cx="52" cy="41" r="2"></circle>
      <circle fill="#124BE6" cx="90" cy="21" r="2"></circle>
      <circle fill="#124BE6" cx="71" cy="21" r="2"></circle>
      <circle fill="#124BE6" cx="52" cy="21" r="2"></circle>
      <circle fill="#124BE6" cx="33" cy="41" r="2"></circle>
      <circle fill="#124BE6" cx="13" cy="21" r="2"></circle>
      <circle fill="#124BE6" cx="13" cy="41" r="2"></circle>
      <circle fill="#124BE6" cx="52" cy="61" r="2"></circle>
      <circle fill="#124BE6" cx="71" cy="61" r="2"></circle>
      <circle fill="#124BE6" cx="71" cy="41" r="2"></circle>
      <circle fill="#124BE6" cx="33" cy="61" r="2"></circle>
      <circle fill="#124BE6" cx="90" cy="61" r="2"></circle>
      <circle fill="#124BE6" cx="90" cy="81" r="2"></circle>
      <circle fill="#124BE6" cx="90" cy="101" r="2"></circle>
      <circle fill="#124BE6" cx="71" cy="101" r="2"></circle>
      <circle fill="#124BE6" cx="52" cy="101" r="2"></circle>
      <circle fill="#124BE6" cx="13" cy="101" r="2"></circle>
      <circle fill="#124BE6" cx="13" cy="61" r="2"></circle>
      <circle fill="#124BE6" cx="33" cy="81" r="2"></circle>
      <circle fill="#124BE6" cx="52" cy="81" r="2"></circle>
      <path d="M21.9234294,8.29903053 L34.5426934,0.665332348 C35.9603451,-0.19223951 37.8047783,0.261794959 38.6623502,1.67944672 C38.9456853,2.14782797 39.0954646,2.68480601 39.0954646,3.23221793 L39.0954646,18.4198164 C39.0954646,20.0766706 37.7523188,21.4198164 36.0954646,21.4198164 C35.5527813,21.4198164 35.0202609,21.2726119 34.5546266,20.9938828 L21.9353626,13.4399826 C20.5137449,12.5890013 20.0511528,10.7466958 20.9021341,9.32507812 C21.1537017,8.90481867 21.5043423,8.55254643 21.9234294,8.29903053 Z" stroke="#124BE6" stroke-width="4"></path>
      <path d="M22.482804,107.925474 L34.9899186,100.887812 C36.4338733,100.075309 38.2630935,100.587202 39.0755964,102.031156 C39.3283228,102.480294 39.4610851,102.986964 39.4610851,103.502323 L39.4610851,117.50408 C39.4610851,119.160935 38.1179393,120.50408 36.4610851,120.50408 C35.9502781,120.50408 35.4479307,120.373652 35.0016431,120.125154 L22.4945285,113.161059 C21.0469492,112.355032 20.5268689,110.528123 21.3328964,109.080543 C21.6022607,108.596781 22.0002525,108.197002 22.482804,107.925474 Z" stroke="#124BE6" stroke-width="4"></path>
    </g>
  </g>
</svg>
