<svg viewBox="0 0 125 40" fill="none" xmlns="http://www.w3.org/2000/svg">
<path d="M40 10H10V40H40V10Z" fill="#CCDAFF"/>
<path d="M30 0H0V30H30V0Z" fill="#2962FF"/>
<path d="M58.804 12.464C59.596 12.464 60.346 12.632 61.054 12.968C61.774 13.304 62.368 13.754 62.836 14.318C63.304 14.882 63.586 15.494 63.682 16.154L63.7 16.28C63.7 16.328 63.682 16.364 63.646 16.388C63.622 16.412 63.592 16.424 63.556 16.424L62.206 16.532H62.17C62.134 16.532 62.104 16.52 62.08 16.496C62.056 16.46 62.038 16.412 62.026 16.352C61.846 15.572 61.474 14.948 60.91 14.48C60.346 14.012 59.662 13.778 58.858 13.778C57.598 13.778 56.632 14.246 55.96 15.182C55.3 16.106 54.97 17.492 54.97 19.34C54.97 21.152 55.3 22.52 55.96 23.444C56.632 24.356 57.628 24.812 58.948 24.812C59.8 24.812 60.508 24.608 61.072 24.2C61.648 23.78 62.11 23.126 62.458 22.238C62.482 22.154 62.554 22.13 62.674 22.166L63.736 22.418C63.82 22.442 63.85 22.526 63.826 22.67C63.646 23.27 63.334 23.84 62.89 24.38C62.446 24.908 61.882 25.34 61.198 25.676C60.514 26.012 59.74 26.18 58.876 26.18C57.688 26.18 56.668 25.904 55.816 25.352C54.964 24.8 54.31 24.008 53.854 22.976C53.398 21.944 53.17 20.72 53.17 19.304C53.17 17.888 53.392 16.67 53.836 15.65C54.292 14.618 54.94 13.832 55.78 13.292C56.632 12.74 57.64 12.464 58.804 12.464ZM66.3646 26C66.1966 26 66.1126 25.922 66.1126 25.766V16.694C66.1126 16.538 66.1786 16.46 66.3106 16.46H67.3546C67.4866 16.46 67.5526 16.526 67.5526 16.658V17.828C67.5526 17.9 67.5706 17.942 67.6066 17.954C67.6546 17.966 67.7026 17.942 67.7506 17.882C68.6626 16.814 69.5926 16.28 70.5406 16.28C70.9606 16.28 71.1706 16.358 71.1706 16.514V17.594C71.1706 17.714 71.1166 17.762 71.0086 17.738C70.7926 17.702 70.5226 17.684 70.1986 17.684C69.8506 17.684 69.4726 17.786 69.0646 17.99C68.6566 18.194 68.3146 18.458 68.0386 18.782C67.7626 19.106 67.6246 19.436 67.6246 19.772V25.73C67.6246 25.91 67.5346 26 67.3546 26H66.3646ZM78.4945 24.848C77.5705 25.736 76.5025 26.18 75.2905 26.18C74.3545 26.18 73.6165 25.946 73.0765 25.478C72.5485 24.998 72.2845 24.362 72.2845 23.57C72.2845 22.61 72.6865 21.854 73.4905 21.302C74.3065 20.75 75.4825 20.426 77.0185 20.33L78.4225 20.222C78.6265 20.198 78.7285 20.108 78.7285 19.952V19.466C78.7285 18.818 78.5245 18.308 78.1165 17.936C77.7205 17.552 77.1805 17.36 76.4965 17.36C75.4405 17.36 74.5765 17.84 73.9045 18.8C73.8685 18.86 73.8325 18.902 73.7965 18.926C73.7605 18.938 73.7125 18.932 73.6525 18.908L72.6805 18.584C72.6205 18.56 72.5905 18.518 72.5905 18.458C72.5905 18.422 72.6085 18.368 72.6445 18.296C73.0045 17.66 73.5145 17.168 74.1745 16.82C74.8465 16.46 75.6385 16.28 76.5505 16.28C77.7265 16.28 78.6265 16.556 79.2505 17.108C79.8745 17.648 80.1865 18.398 80.1865 19.358V25.73C80.1865 25.838 80.1685 25.91 80.1325 25.946C80.0965 25.982 80.0305 26 79.9345 26H79.0345C78.8905 26 78.8065 25.904 78.7825 25.712L78.7465 24.884C78.7345 24.8 78.7045 24.758 78.6565 24.758C78.6085 24.758 78.5545 24.788 78.4945 24.848ZM78.7285 21.428C78.7285 21.236 78.6385 21.14 78.4585 21.14L77.2885 21.248C76.1725 21.32 75.3085 21.536 74.6965 21.896C74.0965 22.256 73.7965 22.754 73.7965 23.39C73.7965 23.906 73.9765 24.314 74.3365 24.614C74.7085 24.914 75.2005 25.064 75.8125 25.064C76.1845 25.064 76.5505 24.998 76.9105 24.866C77.2705 24.734 77.5885 24.554 77.8645 24.326C78.1405 24.11 78.3505 23.882 78.4945 23.642C78.6505 23.39 78.7285 23.15 78.7285 22.922V21.428ZM83.0638 26C82.8958 26 82.8118 25.922 82.8118 25.766V16.694C82.8118 16.538 82.8778 16.46 83.0098 16.46H84.0898C84.2098 16.46 84.2698 16.526 84.2698 16.658V17.702C84.2698 17.846 84.3298 17.864 84.4498 17.756C85.0978 17.228 85.6498 16.85 86.1058 16.622C86.5618 16.394 87.0718 16.28 87.6358 16.28C88.3078 16.28 88.8598 16.43 89.2918 16.73C89.7358 17.03 90.0358 17.408 90.1918 17.864C90.2158 17.9 90.2398 17.918 90.2638 17.918C90.2998 17.918 90.3598 17.888 90.4438 17.828C91.0678 17.3 91.6258 16.91 92.1178 16.658C92.6218 16.406 93.1498 16.28 93.7018 16.28C94.5658 16.28 95.2378 16.526 95.7178 17.018C96.2098 17.51 96.4558 18.176 96.4558 19.016V25.712C96.4558 25.904 96.3658 26 96.1858 26H95.1778C95.0218 26 94.9438 25.922 94.9438 25.766V19.34C94.9438 18.74 94.7998 18.278 94.5118 17.954C94.2238 17.63 93.7918 17.468 93.2158 17.468C92.7358 17.468 92.2858 17.588 91.8658 17.828C91.4458 18.056 91.0378 18.344 90.6418 18.692C90.5458 18.788 90.4798 18.872 90.4438 18.944C90.4078 19.016 90.3898 19.106 90.3898 19.214V25.712C90.3898 25.904 90.2998 26 90.1198 26H89.1118C88.9558 26 88.8778 25.922 88.8778 25.766V19.34C88.8778 18.092 88.3018 17.468 87.1498 17.468C86.6698 17.468 86.2258 17.582 85.8178 17.81C85.4218 18.026 84.9238 18.398 84.3238 18.926V25.73C84.3238 25.826 84.2998 25.898 84.2518 25.946C84.2158 25.982 84.1498 26 84.0538 26H83.0638ZM107.368 25.712C107.392 25.736 107.404 25.778 107.404 25.838C107.404 25.946 107.338 26 107.206 26H105.946C105.874 26 105.814 25.988 105.766 25.964C105.718 25.928 105.67 25.868 105.622 25.784L102.904 21.122C102.88 21.062 102.85 21.032 102.814 21.032C102.778 21.02 102.736 21.038 102.688 21.086L100.78 23.012C100.696 23.096 100.654 23.216 100.654 23.372V25.694C100.654 25.814 100.63 25.898 100.582 25.946C100.534 25.982 100.45 26 100.33 26H99.4123C99.3043 26 99.2323 25.982 99.1963 25.946C99.1603 25.91 99.1423 25.844 99.1423 25.748V12.896C99.1423 12.728 99.2083 12.644 99.3403 12.644H100.438C100.582 12.644 100.654 12.722 100.654 12.878V21.23C100.654 21.35 100.672 21.41 100.708 21.41C100.744 21.41 100.786 21.374 100.834 21.302L105.28 16.676C105.412 16.532 105.538 16.46 105.658 16.46H106.756C106.9 16.46 106.972 16.502 106.972 16.586C106.972 16.622 106.93 16.694 106.846 16.802L104.002 19.7C103.954 19.772 103.93 19.826 103.93 19.862C103.93 19.898 103.948 19.946 103.984 20.006L107.368 25.712ZM110.814 25.694C110.814 25.814 110.79 25.898 110.742 25.946C110.694 25.982 110.61 26 110.49 26H109.554C109.446 26 109.374 25.982 109.338 25.946C109.302 25.91 109.284 25.844 109.284 25.748L109.302 12.896C109.302 12.728 109.374 12.644 109.518 12.644H110.598C110.742 12.644 110.814 12.722 110.814 12.878V25.694ZM114.599 21.824C114.599 22.4 114.737 22.934 115.013 23.426C115.301 23.918 115.685 24.308 116.165 24.596C116.645 24.884 117.173 25.028 117.749 25.028C118.949 25.028 119.885 24.53 120.557 23.534C120.605 23.486 120.647 23.462 120.683 23.462C120.719 23.45 120.761 23.456 120.809 23.48L121.565 23.858C121.661 23.918 121.673 24.002 121.601 24.11C121.133 24.83 120.575 25.358 119.927 25.694C119.279 26.018 118.505 26.18 117.605 26.18C116.729 26.18 115.943 25.976 115.247 25.568C114.551 25.16 114.005 24.59 113.609 23.858C113.225 23.114 113.033 22.268 113.033 21.32C113.033 20.3 113.231 19.412 113.627 18.656C114.023 17.888 114.563 17.3 115.247 16.892C115.943 16.484 116.723 16.28 117.587 16.28C118.451 16.28 119.207 16.472 119.855 16.856C120.515 17.24 121.025 17.804 121.385 18.548C121.745 19.28 121.925 20.15 121.925 21.158V21.23C121.925 21.338 121.907 21.422 121.871 21.482C121.835 21.53 121.763 21.554 121.655 21.554H114.761C114.653 21.554 114.599 21.644 114.599 21.824ZM120.107 20.564C120.239 20.564 120.323 20.552 120.359 20.528C120.395 20.492 120.413 20.42 120.413 20.312C120.413 19.784 120.299 19.298 120.071 18.854C119.855 18.398 119.531 18.038 119.099 17.774C118.679 17.498 118.187 17.36 117.623 17.36C117.011 17.36 116.477 17.516 116.021 17.828C115.565 18.128 115.217 18.524 114.977 19.016C114.737 19.496 114.623 20.012 114.635 20.564H120.107Z" fill="currentColor"/>
</svg>
